<?xml version="1.0" encoding="UTF-8"?>
<svg id="Calque_1" xmlns="http://www.w3.org/2000/svg" version="1.1" viewBox="0 0 101.2 102.2">
  <!-- Generator: Adobe Illustrator 29.3.1, SVG Export Plug-In . SVG Version: 2.1.0 Build 151)  -->
  <defs>
    <style>
      .st0 {
        font-family: MicrosoftSansSerif, 'Microsoft Sans Serif';
        font-size: 10.3px;
      }

      .st0, .st1 {
        fill: #8bc440;
      }

      .st0, .st2 {
        isolation: isolate;
      }

      .st3 {
        fill: #1e93e2;
      }

      .st4 {
        fill: none;
      }

      .st5 {
        fill: #e07220;
      }

      .st6 {
        fill: #0d4472;
      }
    </style>
  </defs>
  <g class="st2">
    <text class="st0" transform="translate(329.2 261)"><tspan x="0" y="0">Factory For The Valorization Freezing</tspan></text>
    <text class="st0" transform="translate(326.5 273.5)"><tspan x="0" y="0">And Processing Of Fisheries Products</tspan></text>
  </g>
  <g>
    <path class="st5" d="M40.7,73.2c-2.1-3.4-6.6-11.7-6.5-23,.1-11.5,4.9-19.8,7.1-23.1-.5-.3-4.2-2.6-4.7-7-.5-3.8,1.7-7.7,5.5-9.7,1-.4,4-1.6,7.5-.7,4.1,1.1,7.1,4.7,7.8,9.1,0,0,0,0,0,0,2,.4,4.7,1.2,7.6,2.9,4,2.3,6.5,5.1,7.9,6.9-.7-2.7-1.9-6.4-4.4-10.4-2.4-3.9-5.2-6.7-7.3-8.5-1.4-1.1-4.4-3-8.6-3.8-6.2-1.1-11.1,1.2-12.7,2-7.8,4-12.7,9-16,13.1-2.6,3.3-6.2,8.6-8.6,16.1-.8,3.3-1.9,9.8.2,17.6,1.6,6.1,4.6,10.4,6.6,13,1.4,1.3,4,3.3,7.9,4.7,4.6,1.6,8.7,1.2,10.6.9Z"/>
    <path class="st1" d="M69,53.8c-1.9,3.5-6.9,11.5-17,17.5-10.3,6.1-20.2,6.7-24.4,6.7,0,.6-.1,4.8-3.7,7.5-3.1,2.4-7.7,2.7-11.6.8-.9-.5-3.6-2.3-4.6-5.6-1.2-3.8.3-8.2,3.9-11.2,0,0,0,0,0,0-.7-1.8-1.4-4.4-1.5-7.6-.1-4.4,1-7.9,1.9-10-2,2-4.6,5-6.9,9.1-2.2,4-3.2,7.7-3.7,10.4-.2,1.7-.4,5.1,1.3,8.9,2.4,5.6,7,8.3,8.5,9.1,7.7,4.1,14.8,5.4,20.2,5.8,4.3.3,11,.3,18.9-1.7,3.4-1.1,9.8-3.7,15.5-9.6,4.5-4.6,6.8-9.3,8-12.3.4-1.8.8-5,0-8.8-1.1-4.6-3.6-7.6-4.9-9Z"/>
    <path class="st3" d="M41.9,40c4.2.2,13.9,1.3,23.7,7.6,10,6.5,14.6,14.8,16.4,18.5.6-.2,4.6-1.8,8.7.1,3.6,1.8,5.8,5.6,5.5,9.8-.2,1-.8,4.1-3.6,6.3-3.2,2.6-8,3-12.3,1.1-1.5,1.3-3.7,3-6.7,4.4-4.2,1.9-8.1,2.3-10.4,2.4,2.7.9,6.7,2,11.6,2.3,4.8.3,8.7-.4,11.5-1,1.8-.5,5.1-1.8,8.1-4.7,4.4-4.3,5.1-9.4,5.3-11.1.8-8.4-.8-15-2.7-19.9-1.5-3.9-4.2-9.7-9.4-15.7-2.5-2.5-7.6-7-15.5-9.6-6.2-2.1-11.7-2.2-15-2-1.9.4-5.1,1.3-8.5,3.7-3.9,2.8-5.9,6.2-6.7,7.9Z"/>
  </g>
  <path class="st3" d="M114.7,65.7c-.8-.4-2.3-1-4.2-1.1-4.1-.2-6.8,2.2-7.3,2.6h0c.3-.7,1-2.4,3-3.8,1.2-.8,2.4-1.2,3.2-1.4.9-.2,2.1-.4,3.6-.4,1.7,0,3.1.2,4.1.4-.8,1.3-1.6,2.5-2.4,3.8Z"/>
  <g>
    <path class="st4" d="M130.7,58.1c-1.2-3.1-1.9-4.8-2-5.1-.7,1.3-1.3,2.4-1.8,3.3l-.7,1.2c1.1.4,2.7.7,4.5.6Z"/>
    <path class="st3" d="M118,62.2c-.4-.1-.7-.2-.9-.3-.8,1.2-1.6,2.5-2.4,3.7l-1.3,2c1.8,0,3.1,0,3.9,0s1.7,0,3.7,0c.7-1.3,1.3-2.6,2-3.7-1.2-.4-2.4-.7-3.5-1.2-.6-.2-.8-.3-1.4-.5Z"/>
    <path class="st3" d="M138.7,61.9c-.8.8-1.7,1.5-3,2.2-.9.5-1.8.8-2.8.9.4.9.7,1.8.9,2.6,1.7,0,3.1,0,4,0s1.5,0,3.4,0l-.9-2-1.6-3.7Z"/>
    <path class="st6" d="M163,58.1c-.2-.6-.4-1.2-.7-1.7-.3-.5-.7-.9-1.1-1.3s-.8-.6-1.1-.7c-.3-.1-.8-.3-1.4-.4.6-.2,1-.4,1.4-.6.3-.2.7-.5,1-.8.4-.3.7-.8,1-1.3s.5-1.1.7-1.8c.2-.7.2-1.4.2-2.1s-.1-1.8-.4-2.7c-.2-.7-.6-1.3-1-1.9-.4-.4-.8-.8-1.4-1.1-.6-.3-1.2-.5-2-.6-.6,0-1.5-.1-2.9-.1s-2.1,0-3.4,0l-.2,5.2h1.5c.9,0,1.5,0,1.9.3.4.2.7.5.9.8.2.4.3.8.3,1.3s0,.7-.1,1c0,.3-.2.6-.5.9-.2.3-.5.5-.8.6-.3.1-.6.2-.9.2-.3,0-.8,0-1.6,0h-.9l-.2,5.3h2c.7,0,1.3,0,1.6.1.3,0,.6.3.9.5.2.2.4.5.5.8.1.3.2.7.2,1.1s0,.9-.2,1.3c-.1.4-.3.7-.6,1-.2.2-.6.4-1.1.6-.4.1-1,.2-1.8.2h-1.7l-.2,5.3c1.4,0,2.8,0,4.1,0,1.5,0,2.5-.1,3-.2.7-.1,1.4-.4,2-.8.7-.4,1.2-.8,1.6-1.4.5-.6.9-1.4,1.1-2.2.3-.9.4-1.8.4-2.8s0-1.4-.2-2Z"/>
    <path class="st6" d="M147.3,41.1c-.8,0-2,0-3.4,0,0,1,0,1.8,0,2.4,0,1.6,0,4.3-.2,8.2-.1,3.9-.2,6.9-.3,9.2,0,1.6-.2,3.9-.4,6.7h3.1s3.2,0,3.2,0l1-26.5c-1.1,0-2.1,0-3,0Z"/>
    <path class="st6" d="M184.3,46.7c1.5-2.4,2.7-4.3,3.4-5.7-1.6,0-2.8,0-3.7,0-1.3,0-2.6,0-3.7,0-.6,1.2-1.2,2.4-1.9,3.8-.3.5-.6,1-.8,1.5l3.1,6.5c1.2-2,2.4-4,3.6-6.1Z"/>
    <path class="st6" d="M169.8,41.1c-1.4,0-2.9,0-4.2,0,.5,1,.9,1.8,1.3,2.6l1.6,3c.7,1.3,1.2,2.2,1.5,2.9l1.9,3.9c-1,1.7-2.4,4-4.2,6.9-1.8,2.9-3.3,5.3-4.6,7.2,1.6,0,2.9,0,3.9,0s2.1,0,3.7,0c.7-1.3,1.6-2.8,2.5-4.5,1-1.6,1.6-2.9,2.1-3.8.6,1.3,1.2,2.8,2,4.4.8,1.6,1.3,2.9,1.8,3.9,1.4,0,2.8,0,4.2,0s1.5,0,2.5,0l-12.6-26.5c-1.2,0-2.3,0-3.4,0Z"/>
    <path class="st6" d="M138,59.4c2.4-2.4,2.8-5.5,2.9-7-.3.6-1.6,2.7-4.4,4.2l-.9-2-2.3-5.7c-1.3,0-2.7,0-4.2,0s-2.2,0-4.1,0c-.5.8-.8,1.4-1.1,1.9l-.9,1.5-2,3.3c-2.2-.5-5.2-.7-8.3.5-4.3,1.7-6.1,5-6.6,5.9,1.2-.9,3.2-2.1,6-2.6,4.8-.9,9,.7,10.6,1.4,5.8,2.7,11.8,2.2,15.2-1.3ZM128.7,53c.1.3.8,2,2,5.1-1.8,0-3.3-.3-4.5-.6l.7-1.2c.5-.9,1.1-1.9,1.8-3.3Z"/>
  </g>
  <g class="st2">
    <g class="st2">
      <path class="st3" d="M119.5,82.9h-1.5v-10.4h-4.3v-1.3h10v1.3h-4.3v10.4Z"/>
      <path class="st3" d="M129,78h-1.9v4.9h-1.4v-11.7s4.7,0,4.7,0c1.8,0,3.4,1.2,3.4,3.4s-1.6,3.3-3.2,3.4h.1c0,.1,3.3,4.8,3.3,4.8v.2h-1.5l-3.6-4.9ZM130.3,72.5h-3.2v4.2h3.2c1.1,0,2.1-.9,2.1-2.1s-1-2.1-2.1-2.1Z"/>
      <path class="st3" d="M142.6,80.2h-5.3c-.3.9-.7,1.9-1.1,2.8h-1.5l4.6-11.7h1.2l4.5,11.7h-1.5l-1-2.8ZM137.8,78.9h4.3l-2.2-5.5-2.1,5.5Z"/>
      <path class="st3" d="M151,82.9h-4.2v-11.7h4.4c2.5,0,5.2,2,5.2,5.9s-2.8,5.8-5.4,5.8ZM150.9,72.5h-2.7v9.2h2.7c1.9,0,4.1-1.5,4.1-4.6s-2-4.6-4.1-4.6Z"/>
      <path class="st3" d="M159.3,71.2h1.4v11.7h-1.4v-11.7Z"/>
      <path class="st3" d="M165,74.1v8.9h-1.4v-11.7h1.1l6.6,8.7v-8.7h1.4v11.7h-.9l-6.7-8.9Z"/>
      <path class="st3" d="M183.1,82.4c-.8.4-1.9.7-2.9.7-2.7,0-5.6-2.1-5.6-6.1s2.7-6,5.6-6,1.5,0,2.3.3c.8.3,1.7.9,2.2,1.3l-.7,1c-.5-.4-1.2-.9-1.7-1.1-.5-.2-1.2-.4-2-.4-2.2,0-4.1,1.8-4.1,4.7s2.2,4.7,4.2,4.7,2.5-.5,3.2-1.1h0s0-2.8,0-2.8h-3.7l.2-1.2h4.8v4.7c-.4.3-1,.7-1.6,1Z"/>
    </g>
  </g>
  <polygon class="st6" points="124.7 49.3 133.4 49.3 129.7 40.4 124.7 49.3"/>
  <g class="st2">
    <g class="st2">
      <path class="st5" d="M27.9-3.7c-.8.4-1.8.7-2.9.7-2.6,0-5.5-2.1-5.5-6s2.7-5.9,5.4-5.9,1.5,0,2.2.3c.8.3,1.7.9,2.1,1.3l-.7,1c-.5-.4-1.2-.9-1.7-1-.5-.2-1.2-.4-2-.4-2.1,0-4.1,1.8-4.1,4.6s2.1,4.7,4.1,4.7,2.4-.5,3.2-1.1h0s0-2.7,0-2.7h-3.6l.2-1.2h4.7v4.7c-.4.3-1,.7-1.6,1Z"/>
      <path class="st5" d="M35.2-8h-1.8V-3.2h-1.4v-11.5s4.6,0,4.6,0c1.7,0,3.3,1.2,3.3,3.3s-1.5,3.2-3.1,3.3h.1c0,.1,3.2,4.7,3.2,4.7v.2h-1.5l-3.5-4.8ZM36.5-13.4h-3.1v4.2h3.1c1,0,2.1-.9,2.1-2.1s-1-2.1-2.1-2.1Z"/>
      <path class="st5" d="M47.4-3c-3,0-5.7-2.4-5.7-5.9s2.7-6,5.7-6,5.7,2.5,5.7,6-2.7,5.9-5.7,5.9ZM47.4-13.6c-2.5,0-4.4,2.1-4.4,4.7s1.9,4.6,4.4,4.6,4.4-2.1,4.4-4.6-1.9-4.7-4.4-4.7Z"/>
      <path class="st5" d="M60-3.1c-3.1,0-4.7-2.2-4.7-5.7v-5.8h1.4v5.9c0,3.1,1.2,4.4,3.3,4.4s3.2-1.4,3.2-4.4v-5.8h1.4v5.8c0,3.7-1.6,5.8-4.6,5.8Z"/>
      <path class="st5" d="M71.2-7.4h-2.7V-3.2h-1.4v-11.5h4.1c1.7,0,3.7,1,3.7,3.6s-2,3.6-3.7,3.6ZM71.2-13.3h-2.7v4.6h2.6c1.1,0,2.4-.9,2.4-2.3s-1.2-2.3-2.3-2.3Z"/>
    </g>
  </g>
  <path class="st5" d="M13-19.9c-.8-.4-2.3-1-4.2-1.1-4-.2-6.7,2.1-7.1,2.5h0c.3-.7,1-2.4,3-3.7,1.2-.8,2.4-1.2,3.2-1.4.9-.2,2.1-.4,3.5-.4,1.7,0,3.1.2,4.1.4-.8,1.2-1.6,2.5-2.4,3.7Z"/>
  <g>
    <path class="st4" d="M28.7-27.4c-1.2-3.1-1.8-4.7-1.9-5.1-.7,1.3-1.3,2.4-1.8,3.2l-.7,1.2c1.1.3,2.6.7,4.4.6Z"/>
    <path class="st5" d="M16.2-23.4c-.4-.1-.7-.2-.9-.3-.8,1.2-1.5,2.4-2.3,3.6l-1.3,1.9c1.8,0,3.1,0,3.9,0s1.6,0,3.6,0c.7-1.3,1.3-2.5,2-3.7-1.2-.3-2.3-.7-3.5-1.1-.5-.2-.8-.3-1.4-.5Z"/>
    <path class="st5" d="M36.7-23.7c-.7.7-1.7,1.5-2.9,2.1-.9.4-1.8.7-2.7.9.4.9.7,1.8.9,2.6,1.7,0,3,0,3.9,0s1.5,0,3.3,0l-.9-2-1.6-3.6Z"/>
    <path class="st6" d="M60.5-27.4c-.2-.6-.4-1.2-.7-1.7-.3-.5-.6-.9-1-1.2s-.7-.6-1.1-.7c-.3-.1-.8-.3-1.3-.4.6-.2,1-.4,1.3-.6.3-.2.7-.5,1-.8.3-.3.7-.8.9-1.3s.5-1.1.6-1.8c.2-.7.2-1.4.2-2.1s-.1-1.8-.4-2.6c-.2-.7-.6-1.3-1-1.8-.4-.4-.8-.8-1.4-1.1-.6-.3-1.2-.5-1.9-.6-.6,0-1.5-.1-2.8-.1s-2.1,0-3.3,0l-.2,5.1h1.4c.8,0,1.5,0,1.9.3.4.2.7.5.9.8.2.4.3.8.3,1.3s0,.7-.1,1c0,.3-.2.6-.5.9-.2.3-.5.5-.8.6-.3.1-.6.2-.9.2-.3,0-.8,0-1.6,0h-.8l-.2,5.2h2c.7,0,1.2,0,1.6.1.3,0,.6.3.9.5.2.2.4.5.5.8.1.3.2.7.2,1.1s0,.9-.2,1.3c-.1.4-.3.7-.6.9-.2.2-.6.4-1.1.6-.4.1-1,.2-1.8.2h-1.7l-.2,5.2c1.4,0,2.7,0,4,0,1.4,0,2.4-.1,3-.2.7-.1,1.3-.4,2-.8.6-.4,1.2-.8,1.6-1.3.5-.6.8-1.3,1.1-2.2.3-.9.4-1.8.4-2.7s0-1.4-.2-2Z"/>
    <path class="st6" d="M45.1-44c-.8,0-1.9,0-3.3,0,0,1,0,1.8,0,2.4,0,1.6,0,4.2-.1,8.1-.1,3.8-.2,6.8-.3,9,0,1.6-.2,3.8-.4,6.6h3.1s3.1,0,3.1,0l1-26c-1.1,0-2.1,0-3,0Z"/>
    <path class="st6" d="M81.5-38.5c1.5-2.4,2.6-4.3,3.4-5.6-1.6,0-2.8,0-3.6,0-1.3,0-2.5,0-3.6,0-.5,1.2-1.2,2.4-1.9,3.7-.3.5-.6,1-.8,1.5l3,6.3c1.1-2,2.3-3.9,3.6-5.9Z"/>
    <path class="st6" d="M67.2-44c-1.4,0-2.8,0-4.2,0,.5.9.9,1.8,1.3,2.5l1.6,3c.7,1.2,1.2,2.2,1.5,2.9l1.9,3.8c-1,1.7-2.3,3.9-4.1,6.8-1.8,2.8-3.3,5.2-4.5,7.1,1.5,0,2.8,0,3.8,0s2.1,0,3.6,0c.7-1.3,1.5-2.8,2.5-4.4.9-1.6,1.6-2.9,2-3.8.5,1.3,1.2,2.7,1.9,4.3.7,1.6,1.3,2.8,1.7,3.9,1.4,0,2.7,0,4.1,0s1.4,0,2.5,0l-12.4-26c-1.2,0-2.3,0-3.3,0Z"/>
    <path class="st6" d="M35.9-26.1c2.3-2.4,2.8-5.4,2.9-6.9-.3.5-1.6,2.6-4.3,4.1l-.9-2-2.3-5.6c-1.3,0-2.6,0-4.1,0s-2.2,0-4.1,0c-.5.8-.8,1.4-1.1,1.9l-.9,1.5-2,3.2c-2.2-.5-5.1-.7-8.1.5-4.3,1.6-6,4.9-6.5,5.8,1.2-.9,3.1-2,5.9-2.6,4.7-.9,8.8.7,10.4,1.4,5.7,2.7,11.6,2.2,15-1.2ZM26.8-32.4c.1.3.8,2,1.9,5.1-1.7,0-3.3-.3-4.4-.6l.7-1.2c.5-.8,1.1-1.9,1.8-3.2Z"/>
  </g>
  <polygon class="st6" points="22.9 -36 31.4 -36 27.8 -44.8 22.9 -36"/>
  <g class="st2">
    <path class="st1" d="M-78.1,82.3h-3v-8.3h2.8c1.1,0,2.2.7,2.2,2.3s-.5,1.5-1,1.8h0c.6.3,1.1,1.1,1.1,2,0,1.6-1.2,2.3-2.1,2.3ZM-78.3,74.8h-1.9v2.9c.7,0,1.3,0,2,0s1.3-.5,1.3-1.4-.6-1.4-1.4-1.4ZM-78.2,78.5h-2v2.9h2c.8,0,1.4-.5,1.4-1.4s-.6-1.5-1.4-1.5Z"/>
    <path class="st1" d="M-74.4,73.9h.9v8.4h-.9v-8.4Z"/>
    <path class="st1" d="M-67.5,80.3h-3.2c-.2.6-.4,1.3-.6,2h-.9l2.8-8.4h.7l2.7,8.4h-.9l-.6-2ZM-70.4,79.4h2.6l-1.3-3.9-1.3,3.9Z"/>
    <path class="st1" d="M-64.1,75.9v6.3h-.9v-8.4h.7l4,6.2v-6.2h.9v8.4h-.6l-4.1-6.3Z"/>
    <path class="st1" d="M-54.9,82.4c-1.5,0-3.4-1.5-3.4-4.3s1.7-4.3,3.4-4.3,2.1.6,2.8,1.4l-.4.8c-.7-.7-1.4-1.2-2.4-1.2s-2.5,1.3-2.5,3.4,1.3,3.4,2.5,3.4,1.8-.6,2.4-1.3l.5.7h0c-.5.7-1.5,1.5-2.9,1.5Z"/>
    <path class="st1" d="M-46.8,80.3h-3.2c-.2.6-.4,1.3-.6,2h-.9l2.8-8.4h.7l2.7,8.4h-.9l-.6-2ZM-49.7,79.4h2.6l-1.3-3.9-1.3,3.9Z"/>
    <path class="st1" d="M-40.3,77.8h3v.9h-3v3.5h-.9v-8.3h4.7v.9h-3.8v3Z"/>
    <path class="st1" d="M-32.2,82.4c-1.8,0-3.5-1.8-3.5-4.3s1.7-4.3,3.5-4.3,3.5,1.8,3.5,4.3-1.7,4.3-3.5,4.3ZM-32.2,74.7c-1.5,0-2.7,1.5-2.7,3.4s1.2,3.4,2.7,3.4,2.7-1.5,2.7-3.4-1.1-3.4-2.7-3.4Z"/>
    <path class="st1" d="M-24.2,82.4c-1.8,0-3.5-1.8-3.5-4.3s1.7-4.3,3.5-4.3,3.5,1.8,3.5,4.3-1.7,4.3-3.5,4.3ZM-24.2,74.7c-1.5,0-2.7,1.5-2.7,3.4s1.2,3.4,2.7,3.4,2.7-1.5,2.7-3.4-1.1-3.4-2.7-3.4Z"/>
    <path class="st1" d="M-17,82.3h-2.5v-8.3h2.7c1.5,0,3.1,1.4,3.1,4.2s-1.7,4.2-3.3,4.2ZM-17,74.8h-1.6v6.6h1.6c1.1,0,2.5-1.1,2.5-3.3s-1.2-3.3-2.5-3.3Z"/>
    <path class="st1" d="M-10.2,82.4c-.9,0-1.7-.4-2.5-1l.4-.8c.7.6,1.4.9,2.1.9s2-.4,2-1.6-.8-1.2-1.5-1.3c-.2,0-.4,0-.6-.1-1.1-.2-2.3-.7-2.3-2.3s1.6-2.4,2.6-2.4,1.8.4,2.5,1.1l-.4.8c-.6-.6-1.3-.9-2.1-.9-1.1,0-1.8.6-1.8,1.4s.8,1,1.3,1.2c.2,0,.5.1.8.2.3,0,.7.2.9.2.7.3,1.5.8,1.5,2.1,0,2-1.8,2.5-2.8,2.5Z"/>
  </g>
  <path class="st1" d="M-79.7,69c-.8-.4-2.3-1-4.2-1.1-4.1-.2-6.8,2.1-7.3,2.5h0c.3-.7,1-2.4,3-3.7,1.2-.8,2.4-1.2,3.2-1.4.9-.2,2.2-.4,3.6-.4,1.7,0,3.1.2,4.2.4-.8,1.2-1.6,2.5-2.4,3.7Z"/>
  <g>
    <path class="st4" d="M-63.6,61.5c-1.2-3-1.9-4.7-2-5-.7,1.3-1.3,2.4-1.8,3.2l-.7,1.2c1.1.3,2.7.7,4.5.6Z"/>
    <path class="st1" d="M-76.4,65.5c-.4-.1-.7-.2-.9-.3-.8,1.2-1.6,2.4-2.4,3.6l-1.3,1.9c1.8,0,3.1,0,4,0s1.7,0,3.7,0c.7-1.3,1.3-2.5,2-3.6-1.2-.3-2.4-.7-3.6-1.1-.6-.2-.8-.3-1.4-.5Z"/>
    <path class="st1" d="M-55.5,65.2c-.8.7-1.7,1.5-3,2.1-.9.4-1.8.7-2.8.9.4.9.7,1.8.9,2.5,1.8,0,3.1,0,4,0s1.5,0,3.4,0l-.9-2-1.6-3.6Z"/>
    <path class="st6" d="M-31.2,61.4c-.2-.6-.4-1.2-.7-1.7-.3-.5-.7-.9-1.1-1.3s-.8-.6-1.1-.7c-.3-.1-.8-.3-1.4-.4.6-.2,1-.4,1.4-.6.3-.2.7-.5,1-.8.4-.3.7-.8,1-1.3s.5-1.1.7-1.8c.2-.7.2-1.4.2-2.1s-.1-1.8-.4-2.6c-.2-.7-.6-1.3-1-1.8-.4-.4-.8-.8-1.4-1.1-.6-.3-1.2-.5-2-.6-.6,0-1.5-.1-2.9-.1s-2.1,0-3.4,0l-.2,5.1h1.5c.9,0,1.5,0,1.9.3.4.2.7.5.9.8.2.4.3.8.3,1.3s0,.7-.1,1c0,.3-.2.6-.5.9-.2.3-.5.5-.8.6-.3.1-.6.2-.9.2-.3,0-.9,0-1.6,0h-.9l-.2,5.2h2c.7,0,1.3,0,1.6.1.3,0,.6.3.9.5.2.2.4.5.5.8.1.3.2.7.2,1.1s0,.9-.2,1.3c-.1.4-.3.7-.6.9-.2.2-.6.4-1.1.6-.4.1-1,.2-1.8.2h-1.7l-.2,5.2c1.4,0,2.8,0,4.1,0,1.5,0,2.5-.1,3.1-.2.7-.1,1.4-.4,2-.8.7-.4,1.2-.8,1.6-1.3.5-.6.9-1.3,1.1-2.2.3-.9.4-1.8.4-2.7s0-1.4-.2-2Z"/>
    <path class="st6" d="M-46.9,44.8c-.8,0-2,0-3.4,0,0,1,0,1.8,0,2.4,0,1.6,0,4.3-.2,8.1-.1,3.8-.2,6.8-.3,9,0,1.6-.2,3.8-.5,6.6h3.1s3.2,0,3.2,0l1-26c-1.1,0-2.1,0-3,0Z"/>
    <path class="st6" d="M-9.7,50.3c1.5-2.4,2.7-4.3,3.5-5.6-1.6,0-2.8,0-3.7,0-1.3,0-2.6,0-3.7,0-.6,1.2-1.2,2.4-2,3.7-.3.5-.6,1-.8,1.5l3.1,6.4c1.2-2,2.4-4,3.7-6Z"/>
    <path class="st6" d="M-24.3,44.7c-1.5,0-2.9,0-4.3,0,.5.9.9,1.8,1.3,2.5l1.6,3c.7,1.2,1.2,2.2,1.5,2.9l1.9,3.8c-1,1.7-2.4,3.9-4.2,6.8-1.8,2.9-3.3,5.2-4.6,7.1,1.6,0,2.9,0,3.9,0s2.2,0,3.7,0c.7-1.3,1.6-2.8,2.5-4.4,1-1.6,1.6-2.9,2.1-3.8.6,1.3,1.2,2.7,2,4.3.8,1.6,1.3,2.8,1.8,3.9,1.4,0,2.8,0,4.2,0s1.5,0,2.6,0l-12.7-26c-1.2,0-2.3,0-3.4,0Z"/>
    <path class="st6" d="M-56.3,62.8c2.4-2.3,2.8-5.4,2.9-6.8-.3.5-1.6,2.6-4.4,4.1l-.9-2-2.4-5.6c-1.3,0-2.7,0-4.2,0s-2.3,0-4.1,0c-.5.8-.8,1.4-1.1,1.8l-.9,1.5-2.1,3.2c-2.2-.5-5.2-.7-8.3.5-4.4,1.6-6.2,4.9-6.6,5.8,1.2-.9,3.2-2,6.1-2.6,4.9-.9,9,.7,10.7,1.4,5.8,2.6,11.9,2.1,15.3-1.2ZM-65.6,56.5c.1.3.8,2,2,5-1.8,0-3.3-.3-4.5-.6l.7-1.2c.5-.8,1.1-1.9,1.8-3.2Z"/>
  </g>
  <polygon class="st6" points="-69.7 52.9 -60.9 52.9 -64.6 44.2 -69.7 52.9"/>
</svg>