<?xml version="1.0" encoding="UTF-8"?>
<svg id="Calque_1" xmlns="http://www.w3.org/2000/svg" version="1.1" viewBox="0 0 525.9 267.7">
  <!-- Generator: Adobe Illustrator 29.3.1, SVG Export Plug-In . SVG Version: 2.1.0 Build 151)  -->
  <defs>
    <style>
      .st0 {
        fill: none;
      }

      .st1 {
        fill: #e07220;
      }

      .st2 {
        isolation: isolate;
      }

      .st3 {
        fill: #0d4472;
      }
    </style>
  </defs>
  <path class="st1" d="M111,152.9c-3.9-2-11-4.9-20.3-5.3-19.5-.7-32.6,10.4-34.9,12.4h0c1.3-3.6,5-11.7,14.4-18.3,5.8-4,11.6-5.9,15.5-6.9,4.5-1,10.3-1.9,17.1-2.1,8.1-.2,14.9.8,19.9,1.9-3.9,6.1-7.8,12.1-11.7,18.2Z"/>
  <g>
    <g class="st2">
      <g class="st2">
        <path class="st1" d="M183.6,232.1c-3.8,1.9-9,3.3-14,3.3-12.7,0-27-10.3-27-29.1s13.1-28.7,26.6-28.7,7.4.4,11,1.6c4,1.4,8.2,4.3,10.4,6.4l-3.4,5c-2.3-1.9-6-4.2-8.3-5.1-2.6-1.1-5.9-1.7-9.7-1.7-10.4,0-19.8,8.8-19.8,22.3s10.4,22.7,20.2,22.7,11.8-2.4,15.4-5.3h-.2c0,0,0-13.2,0-13.2h-17.6l.9-6h23.2v22.7c-2,1.6-4.8,3.4-7.8,4.9Z"/>
        <path class="st1" d="M219.5,211.1h-8.9v23.5h-6.9v-56c0,0,22.7,0,22.7,0,8.4,0,16.1,5.8,16.1,16.1s-7.4,15.8-15.2,16.2l.7.5,15.8,22.4v.8h-7.2l-17-23.5ZM225.8,184.6h-15.1v20.3h15.2c5.1,0,10.1-4.4,10.1-10.2s-5-10.1-10.2-10.1Z"/>
        <path class="st1" d="M278.7,235.6c-14.6,0-28-11.8-28-29s13.4-29.1,28-29.1,28.1,12,28.1,29.2-13.4,28.9-28.1,28.9ZM278.7,183.9c-12.2,0-21.3,10.2-21.3,22.8s9.2,22.6,21.3,22.6,21.3-10,21.3-22.6-9.1-22.8-21.3-22.8Z"/>
        <path class="st1" d="M340.4,235.2c-15,0-22.8-10.7-22.8-28.1v-28.5h6.8v28.6c0,15,5.6,21.5,16,21.5s15.4-6.7,15.4-21.6v-28.5h6.8v28.1c0,18.2-7.8,28.5-22.3,28.5Z"/>
        <path class="st1" d="M395.2,214h-13v20.7h-7v-56h19.8c8.3,0,18.2,5,18.2,17.8s-9.7,17.6-18,17.6ZM395.4,185.2h-13.2v22.6h12.7c5.2,0,11.8-4.2,11.8-11.3s-5.9-11.3-11.2-11.3Z"/>
      </g>
    </g>
    <g>
      <path class="st0" d="M187.8,116.4c-5.8-14.9-8.9-23.2-9.5-24.7-3.4,6.4-6.3,11.7-8.6,15.8l-3.3,5.8c5.5,1.7,12.9,3.2,21.4,3.1Z"/>
      <path class="st1" d="M126.7,135.9c-1.9-.6-3.4-1-4.5-1.3-3.8,5.9-7.5,11.8-11.3,17.7l-6.4,9.5c8.7,0,15-.1,18.9-.1s8,0,17.6.1c3.3-6.3,6.4-12.3,9.6-17.9-5.6-1.7-11.3-3.6-17-5.5-2.7-.9-4-1.5-6.8-2.4Z"/>
      <path class="st1" d="M226.5,134.3c-3.6,3.6-8.3,7.4-14.2,10.4-4.3,2.2-8.7,3.6-13.2,4.5,1.7,4.5,3.2,8.7,4.4,12.5,8.4,0,14.7-.1,19.1-.1s7.3,0,16.2.1l-4.5-9.6-7.7-17.8Z"/>
      <path class="st3" d="M342.9,116.3c-.7-3.1-1.9-5.8-3.4-8.3-1.5-2.5-3.2-4.5-5.1-6.1-1.9-1.6-3.6-2.7-5.3-3.4-1.6-.7-3.8-1.3-6.6-1.9,2.7-.9,4.9-1.9,6.5-2.8,1.6-.9,3.3-2.2,5-3.9,1.7-1.7,3.2-3.8,4.6-6.3s2.4-5.4,3.2-8.6c.7-3.2,1.1-6.6,1.1-10.1s-.6-8.8-1.9-12.7c-1.1-3.5-2.7-6.4-4.7-8.9-1.8-2.1-4-3.9-6.7-5.3-2.7-1.4-5.8-2.4-9.4-3-2.7-.4-7.3-.7-13.7-.7s-10.1.1-16.3.3l-.9,24.8h7.1c4.1,0,7.2.4,9.2,1.3,2,.9,3.5,2.2,4.4,4,.9,1.8,1.4,3.8,1.4,6.1s-.2,3.2-.7,4.8c-.4,1.6-1.2,3.1-2.2,4.4-1.1,1.3-2.3,2.2-3.7,2.8-1.4.6-2.9.9-4.4,1.2-1.5.2-4.1.3-7.7.3h-4.1l-1,25.2h9.6c3.5,0,6.1.2,7.7.7,1.6.5,3,1.2,4.2,2.3,1.1,1.1,2,2.4,2.5,3.9.6,1.6.8,3.3.8,5.4s-.3,4.5-1,6.4c-.7,1.9-1.6,3.4-2.8,4.6-1.2,1.1-2.9,2-5.2,2.7-1.9.6-4.7.8-8.6.8h-8.2l-1,25.5c6.8,0,13.3-.1,19.5-.4,7.1-.2,11.9-.6,14.6-1.1,3.3-.7,6.5-1.9,9.6-3.7,3.1-1.8,5.7-4,7.6-6.5,2.3-3,4.1-6.5,5.4-10.7,1.3-4.2,1.9-8.6,1.9-13.3s-.4-6.7-1.1-9.7Z"/>
      <path class="st3" d="M267.7,35.1c-4,0-9.4,0-16.3-.3,0,5,0,8.8,0,11.5,0,7.6-.2,20.7-.7,39.3-.5,18.6-1,33.2-1.5,43.9-.4,7.8-1.1,18.5-2.2,32.2h15c0,0,15.3,0,15.3,0l4.8-126.9c-5.4.2-10.2.2-14.5.2Z"/>
      <path class="st3" d="M445.4,62c7.3-11.7,12.8-20.8,16.5-27.1-7.7.1-13.6.2-17.7.2-6.4,0-12.4,0-17.8-.2-2.7,5.6-5.8,11.6-9.3,18-1.4,2.6-2.7,5-3.9,7.2l14.8,31c5.6-9.6,11.4-19.3,17.5-29.1Z"/>
      <path class="st3" d="M375.7,35c-6.9,0-13.7,0-20.4-.2,2.4,4.6,4.5,8.7,6.4,12.3l7.7,14.4c3.2,6,5.6,10.7,7.3,14l9.1,18.5c-4.7,8.2-11.4,19.2-20,33.1-8.6,13.9-15.9,25.4-21.9,34.6,7.6-.1,13.7-.2,18.6-.2s10.3,0,17.8.2c3.5-6.4,7.5-13.6,12.1-21.5,4.6-7.9,7.9-14,9.9-18.3,2.7,6.4,5.8,13.4,9.4,21,3.6,7.6,6.4,13.9,8.4,18.8,6.6-.1,13.3-.2,20.1-.2s7.1,0,12.2,0l-60.7-126.8c-5.7.1-11.1.2-16.1.2Z"/>
      <path class="st3" d="M222.7,122.8c11.4-11.5,13.5-26.5,13.9-33.6-1.6,2.7-7.9,12.9-21.1,20l-4.2-9.7-11.2-27.4c-6.2,0-12.9.1-20.1.1s-10.8,0-19.8-.1c-2.2,3.9-3.9,7-5.2,9.1l-4.2,7.2-9.8,15.8c-10.5-2.4-24.8-3.4-39.6,2.2-20.9,8-29.4,24.1-31.5,28.4,5.7-4.2,15.4-10,28.9-12.6,23.2-4.5,43.1,3.2,50.9,6.7,27.7,13,56.7,10.5,73.1-6.1ZM178.3,91.7c.6,1.5,3.7,9.8,9.5,24.7-8.5.1-16-1.4-21.4-3.1l3.3-5.8c2.4-4.1,5.2-9.4,8.6-15.8Z"/>
    </g>
    <polygon class="st3" points="159 74.2 200.9 74.2 183.1 31.2 159 74.2"/>
  </g>
</svg>